
<svg version="1.1"
	 xmlns="http://www.w3.org/2000/svg" xmlns:xlink="http://www.w3.org/1999/xlink" xmlns:a="http://ns.adobe.com/AdobeSVGViewerExtensions/3.0/"
	 x="0px" y="0px" width="26.7px" height="19px" viewBox="0 0 26.7 19" style="enable-background:new 0 0 26.7 19;"
	 xml:space="preserve">
<style type="text/css">
	.post__quote{fill:#e8663c;}
	.st1{fill:#000;}
</style>
<defs></defs>
<g>
	<path d="M10.4,2.1c-1.1,0.6-2,1.2-2.7,1.6C7.1,4.2,6.4,4.8,5.7,5.5C5,6.2,4.5,6.9,4.1,7.7c-0.4,0.8-0.6,1.8-0.7,3h1.7
		c1.5,0,2.6,0.4,3.4,1.1c0.8,0.7,1.2,1.8,1.2,3.1c0,1-0.4,1.9-1.1,2.8c-0.7,0.9-1.8,1.3-3,1.3c-2,0-3.5-0.7-4.3-2
		C0.4,15.7,0,13.9,0,11.8c0-1.5,0.3-2.9,1-4.2c0.7-1.3,1.5-2.4,2.4-3.4c1-1,2-1.9,3.1-2.6C7.5,1,8.4,0.4,9.1,0L10.4,2.1z"/>
	<path d="M26.7,2.1c-1.1,0.6-2,1.2-2.7,1.6c-0.7,0.5-1.4,1.1-2.1,1.8c-0.7,0.7-1.2,1.4-1.5,2.2c-0.4,0.8-0.6,1.8-0.7,3h1.7
		c1.5,0,2.6,0.4,3.4,1.1c0.8,0.7,1.2,1.8,1.2,3.1c0,1-0.4,1.9-1.1,2.8c-0.7,0.9-1.8,1.3-3,1.3c-2,0-3.5-0.7-4.3-2
		c-0.9-1.3-1.3-3.1-1.3-5.2c0-1.5,0.3-2.9,1-4.2c0.7-1.3,1.5-2.4,2.4-3.4c1-1,2-1.9,3.1-2.6c1.1-0.7,2-1.3,2.7-1.7L26.7,2.1z"/>
</g>
</svg>
